<svg xmlns="http://www.w3.org/2000/svg" xmlns:xlink="http://www.w3.org/1999/xlink"><defs><symbol fill="currentColor" viewBox="0 0 20 20" id="add-friend"><path fill-rule="evenodd" clip-rule="evenodd" d="M9.001 9a3 3 0 1 0 0-6 3 3 0 0 0 0 6Zm-4 8h3.935c.385 0 .63-.422.488-.78A5.984 5.984 0 0 1 9 14c0-1.212.36-2.34.977-3.283.191-.292.013-.726-.336-.717H8.36a4.969 4.969 0 0 0-.595.02c-2.44.117-4.41 1.482-4.761 4.812C2.919 16.183 4 17 5 17ZM11 14a1 1 0 0 1 1-1h.9a.1.1 0 0 0 .1-.1V12a1 1 0 1 1 2 0v.9a.1.1 0 0 0 .1.1h.9a1 1 0 1 1 0 2h-.9a.1.1 0 0 0-.1.1v.9a1 1 0 1 1-2 0v-.9a.1.1 0 0 0-.1-.1H12a1 1 0 0 1-1-1Z" /></symbol><symbol fill="currentColor" viewBox="0 0 20 20" id="add-video"><path clip-rule="evenodd" d="M2 6a2 2 0 0 1 2-2h8a2 2 0 0 1 2 2v2l2.4-1.8A1 1 0 0 1 18 7v6a1 1 0 0 1-1.6.8L14 12v2a2 2 0 0 1-2 2H4a2 2 0 0 1-2-2V6Zm4 3a1 1 0 1 0 0 2h1v1a1 1 0 1 0 2 0v-1h1a1 1 0 1 0 0-2H9V8a1 1 0 1 0-2 0v1H6Z" /></symbol><symbol fill="currentColor" viewBox="0 0 20 20" id="alert"><path d="M9 10a1 1 0 1 0 2 0V7a1 1 0 1 0-2 0v3ZM10 14a1 1 0 1 1 0-2 1 1 0 0 1 0 2Z" /><path fill-rule="evenodd" clip-rule="evenodd" d="M10 2a8 8 0 1 0 0 16 8 8 0 0 0 0-16Zm-6 8a6 6 0 1 0 12 0 6 6 0 0 0-12 0Z" /></symbol><symbol fill="currentColor" viewBox="0 0 20 20" id="appearance-mobile"><path d="M16 2.688v14.624c0 .932-.806 1.688-1.8 1.688H5.8c-.994 0-1.8-.756-1.8-1.688V2.688C4 1.756 4.806 1 5.8 1h8.4c.994 0 1.8.756 1.8 1.688ZM10 2.8H6.77c-.462 0-.924.45-.924.9v12.6c0 .45.462.9.923.9H10V2.8Z" /></symbol><symbol fill="currentColor" viewBox="0 0 20 20" id="arrow-down-filled"><path d="M6.803 8a.8.8 0 0 0-.592 1.338l3.048 3.336a1.004 1.004 0 0 0 1.482 0l3.048-3.336A.8.8 0 0 0 13.197 8H6.803Z" /></symbol><symbol fill="currentColor" viewBox="0 0 20 20" id="arrow-down-long"><path d="M15.707 12.707a1 1 0 0 0 0-1.414 1.002 1.002 0 0 0-1.416 0l-3.297 3.293V3A1 1 0 0 0 8.99 3V14.57L5.71 11.293a1.002 1.002 0 0 0-1.416 0 1 1 0 0 0 0 1.414l4.291 4.286-.007.007.7.699a1.005 1.005 0 0 0 .732.3c.25-.003.5-.1.692-.292l5.006-5Z" /></symbol><symbol fill="currentColor" viewBox="0 0 20 20" id="arrow-down-short"><path d="M6.293 8.293a1 1 0 0 0 0 1.414l3.006 3a.998.998 0 0 0 .692.293h.019a1 1 0 0 0 .713-.301l.7-.699 2.284-2.293a1 1 0 0 0 0-1.414 1.002 1.002 0 0 0-1.416 0L11.008 9.57l-1.005 1.01L7.71 8.292a1.002 1.002 0 0 0-1.416 0Z" /></symbol><symbol fill="currentColor" viewBox="0 0 20 20" id="awards"><path d="M16.513 5.233c.213.14.428.28.627.442.837.68 1.36 1.68 1.36 2.95 0 .732-.322 1.554-.787 2.332-.475.793-1.142 1.61-1.925 2.347-.103.097-.209.193-.316.287a1.891 1.891 0 0 0-.21-.198 1.717 1.717 0 0 0-1.835-.224l-2 .953a1.704 1.704 0 0 0-.594-.106H9.167c-.212 0-.41.038-.593.106l-2.001-.953a1.717 1.717 0 0 0-1.834.224c-.076.06-.146.127-.21.198-.108-.095-.214-.19-.317-.287-.783-.737-1.45-1.554-1.925-2.347-.465-.778-.787-1.6-.787-2.333 0-1.27.523-2.27 1.36-2.95.197-.16.409-.298.62-.437l.033-.021c.062-.053.096-.112.1-.262.007-.213-.053-.535-.207-1.051a3.936 3.936 0 0 1-.022-2.154c.201-.7.659-1.383 1.473-1.648a1.82 1.82 0 0 1 1.597.194c.41.26.729.657.98 1.002.103.143.18.267.237.358A6.902 6.902 0 0 1 10 1.249a6.9 6.9 0 0 1 2.329.406c.056-.09.134-.215.238-.358.25-.345.568-.742.98-1.002A1.82 1.82 0 0 1 15.142.1c.814.265 1.272.949 1.473 1.648a3.94 3.94 0 0 1-.022 2.154c-.154.516-.214.838-.208 1.051.005.15.039.21.1.262l.027.017Z" /><path d="M5 14.993c0-.702.595-1.182 1.143-.921l2.482 1.182a.757.757 0 0 1 .542-.238h1.666a.76.76 0 0 1 .542.238l2.482-1.182c.548-.26 1.143.22 1.143.921v4.014c0 .702-.595 1.182-1.143.921l-2.482-1.182a.757.757 0 0 1-.542.238H9.167a.757.757 0 0 1-.542-.238l-2.482 1.182c-.548.26-1.143-.22-1.143-.921v-4.014Z" fill="#E34449" /></symbol><symbol fill="currentColor" viewBox="0 0 20 20" id="bell"><path d="M5.602 5.98c.049-.49.177-.955.37-1.382.006-.023 0 0 .04-.086a4.421 4.421 0 0 1 7.976 0c.04.086.034.063.04.086.193.427.321.892.37 1.382l.039.39c.038.237.063.457.063.63l.133 1.33c.28 1.328.947 2.207 1.503 2.939.473.622.864 1.137.864 1.731a1 1 0 0 1-1 1H4a1 1 0 0 1-1-1c0-.861.463-1.444.991-2.108.53-.667 1.125-1.415 1.38-2.61L5.5 7c0-.173.025-.393.063-.63l.039-.39ZM9 16a1 1 0 1 0 0 2h2a1 1 0 1 0 0-2H9Z" /></symbol><symbol fill="currentColor" viewBox="0 0 20 20" id="big-thumbs"><rect x="2" y="2" width="7.5" height="7.5" rx="1" /><rect x="2" y="11" width="7.5" height="7.5" rx="1" /><rect x="11" y="2" width="7.5" height="7.5" rx="1" /><rect x="11" y="11" width="7.5" height="7.5" rx="1" /></symbol><symbol fill="currentColor" viewBox="0 0 20 20" id="big-thumbs-disabled"><path d="M11 12a1 1 0 0 1 1-1h5.5a1 1 0 0 1 1 1v5.5a1 1 0 0 1-1 1H12a1 1 0 0 1-1-1V12ZM18.5 8.5v-2l-5.5 3h4.5a1 1 0 0 0 1-1ZM9.5 17.5v-6L2 16v1.5a1 1 0 0 0 1 1h5.5a1 1 0 0 0 1-1ZM0 15.5l20-12V1.3l-1.743 1.046A.998.998 0 0 0 17.5 2H12a1 1 0 0 0-1 1v3.5a1 1 0 0 0 .048.308L9.5 7.767V3a1 1 0 0 0-1-1H3a1 1 0 0 0-1 1v5.5a1 1 0 0 0 1 1h3.7L4.277 11H3a1 1 0 0 0-1 1v.41L0 13.5v2Z" /></symbol><symbol viewBox="0 0 48 48" fill="currentColor" id="bisexual"><path fill="#e648ce" d="m18.071 13.06.559.561a10.959 10.959 0 0 1 6.726-2.292c2.205 0 4.257.647 5.976 1.76l3.963-3.936h-1.612c-1.21 0-2.191-.974-2.191-2.176s.981-2.176 2.191-2.176h6.574c.128 0 .254.011.376.032A2.183 2.183 0 0 1 43.2 6.977v6.53c0 1.202-.981 2.177-2.191 2.177s-2.191-.974-2.191-2.177v-1.695l-4.364 4.334a10.78 10.78 0 0 1 1.859 6.067c0 5.199-3.67 9.546-8.577 10.625v2.278h2.199c1.21 0 2.191.974 2.191 2.177s-.981 2.176-2.191 2.176h-2.199v1.555c0 1.202-.981 2.176-2.191 2.176s-2.191-.974-2.191-2.176v-1.555h-2.183c-1.21 0-2.191-.974-2.191-2.176s.981-2.177 2.191-2.177h2.183v-2.203c-5.094-.935-8.953-5.37-8.953-10.701 0-1.913.497-3.711 1.37-5.273l-.787-.791-1.682 1.682-1.697-1.697 1.686-1.686-1.736-1.743v1.612c0 1.21-.974 2.191-2.177 2.191s-2.177-.981-2.177-2.191V7.742c0-.128.011-.254.032-.376a2.184 2.184 0 0 1 2.145-2.567h6.53c1.202 0 2.177.981 2.177 2.191s-.974 2.191-2.177 2.191h-1.695l2.167 2.177 1.505-1.505 1.697 1.697-1.508 1.508zm7.286 15.682c3.631 0 6.574-2.923 6.574-6.53s-2.943-6.53-6.574-6.53-6.574 2.923-6.574 6.53 2.943 6.53 6.574 6.53z" /></symbol><symbol fill="currentColor" viewBox="0 0 20 20" id="bookmark"><path d="M4 4a2 2 0 0 1 2-2h8a2 2 0 0 1 2 2v13a1 1 0 0 1-1.6.8l-3.2-2.4a2 2 0 0 0-2.4 0l-3.2 2.4A1 1 0 0 1 4 17V4Z" /></symbol><symbol fill="currentColor" viewBox="0 0 20 20" id="bulb"><path fill-rule="evenodd" clip-rule="evenodd" d="M16 8c.016 2.137-1.082 4.006-3 5.197V14a1 1 0 0 1-1 1H8a1 1 0 0 1-1-1v-.803C5.104 12.134 3.963 10.037 4 8a6 6 0 1 1 12 0Zm-8 8a1 1 0 1 0 0 2h4a1 1 0 1 0 0-2H8Z" /></symbol><symbol fill="currentColor" viewBox="0 0 20 20" id="burger-menu"><path d="M3 4a1 1 0 0 1 1-1h12a1 1 0 1 1 0 2H4a1 1 0 0 1-1-1ZM3 10a1 1 0 0 1 1-1h12a1 1 0 1 1 0 2H4a1 1 0 0 1-1-1ZM4 15a1 1 0 1 0 0 2h12a1 1 0 1 0 0-2H4Z" /></symbol><symbol fill="currentColor" viewBox="0 0 21 20" id="calendar"><path d="M17.333 18h-14a1 1 0 0 1-1-1v-7h16v7a1 1 0 0 1-1 1Zm-15-13a1 1 0 0 1 1-1h1V3a1 1 0 0 1 2 0v1h8V3a1 1 0 1 1 2 0v1h1a1 1 0 0 1 1 1v3h-16V5Z" /></symbol><symbol fill="currentColor" viewBox="0 0 20 20" id="call"><path d="M3 5a2 2 0 0 1 2-2h.329a1.5 1.5 0 0 1 1.455 1.136l.537 2.146a2 2 0 0 1-.152 1.38l-.942 1.884a.908.908 0 0 0 .027.894c.42.662.952 1.21 1.524 1.782a9.506 9.506 0 0 0 1.909 1.476.943.943 0 0 0 .905.015 374.93 374.93 0 0 1 1.746-.882 2 2 0 0 1 1.38-.152l2.146.537A1.5 1.5 0 0 1 17 14.671V15a2 2 0 0 1-2 2h-1l-.024-.012a11.501 11.501 0 0 1-10.1-7.087A11.649 11.649 0 0 1 3 6V5Z" /></symbol><symbol viewBox="0 0 48 48" fill="currentColor" id="categories"><path d="M18 7.2h21.6a3.6 3.6 0 0 1 0 7.2H18a3.6 3.6 0 0 1 0-7.2zm-9.6 0a3.6 3.6 0 1 1 0 7.2 3.6 3.6 0 0 1 0-7.2zm9.6 12h21.6a3.6 3.6 0 0 1 0 7.2H18a3.6 3.6 0 0 1 0-7.2zm-9.6 0a3.6 3.6 0 1 1 0 7.2 3.6 3.6 0 0 1 0-7.2zm9.6 12h21.6a3.6 3.6 0 0 1 0 7.2H18a3.6 3.6 0 0 1 0-7.2zm-9.6 0a3.6 3.6 0 1 1 0 7.2 3.6 3.6 0 0 1 0-7.2z" /></symbol><symbol fill="currentColor" viewBox="0 0 20 20" id="chart"><path fill-rule="evenodd" clip-rule="evenodd" d="M3 5a2 2 0 0 1 2-2h10a2 2 0 0 1 2 2v10a2 2 0 0 1-2 2H5a2 2 0 0 1-2-2V5Zm11.949 1.316a1 1 0 0 0-1.898-.632l-1.56 4.683-2.88-2.16a1.01 1.01 0 0 0-1.544.434l-1.995 4.987a1 1 0 0 0 1.856.743l1.516-3.788 2.945 2.209a1.01 1.01 0 0 0 1.564-.489l1.996-5.987Z" /></symbol><symbol fill="currentColor" viewBox="0 0 20 20" id="check"><path d="M5.293 9.293a1 1 0 0 0 0 1.414l3.006 3a.998.998 0 0 0 .692.293h.019a.999.999 0 0 0 .713-.301l.7-.699 5.284-5.293a1 1 0 0 0 0-1.414 1.002 1.002 0 0 0-1.416 0l-4.283 4.278-1.005 1.01L6.71 9.292a1.002 1.002 0 0 0-1.416 0Z" /></symbol><symbol fill="none" viewBox="0 0 20 20" id="chevron-big"><path fill="currentColor" d="M4.707 6.293a1 1 0 0 0-1.414 1.414l6 6a1 1 0 0 0 1.414 0l6-6a1 1 0 0 0-1.414-1.414l-5.152 5.151a.2.2 0 0 1-.282 0z" /></symbol><symbol fill="currentColor" viewBox="0 0 20 20" id="clear"><path fill-rule="evenodd" clip-rule="evenodd" d="M10 2a8 8 0 1 0 0 16 8 8 0 0 0 0-16ZM7.293 7.293a1 1 0 0 1 1.414 0L10 8.586l1.293-1.293a1 1 0 1 1 1.414 1.414L11.414 10l1.293 1.293a1 1 0 0 1-1.414 1.414L10 11.414l-1.293 1.293a1 1 0 0 1-1.414-1.414L8.586 10 7.293 8.707a1 1 0 0 1 0-1.414Z" /></symbol><symbol fill="currentColor" viewBox="0 0 20 20" id="close"><path d="M4.707 3.293a1 1 0 0 0-1.414 1.414L8.586 10l-5.293 5.293a1 1 0 1 0 1.414 1.414L10 11.414l5.293 5.293a1 1 0 0 0 1.414-1.414L11.414 10l5.293-5.293a1 1 0 0 0-1.414-1.414L10 8.586 4.707 3.293Z" /></symbol><symbol fill="currentColor" viewBox="0 0 20 20" id="close-small"><path d="M6.707 5.293a1 1 0 0 0-1.414 1.414L8.586 10l-3.293 3.293a1 1 0 1 0 1.414 1.414L10 11.414l3.293 3.293a1 1 0 0 0 1.414-1.414L11.414 10l3.293-3.293a1 1 0 0 0-1.414-1.414L10 8.586 6.707 5.293Z" /></symbol><symbol viewBox="0 0 42 42" fill="currentColor" id="coins"><path d="M13.752 8.353A15.054 15.054 0 0 1 17 8c8.284 0 15 6.716 15 15 0 .327-.01.65-.031.972A11.955 11.955 0 0 0 35 16c0-6.627-5.373-12-12-12a11.975 11.975 0 0 0-9.248 4.353z" /><path clip-rule="evenodd" d="M17 11c-6.627 0-12 5.373-12 12s5.373 12 12 12 12-5.373 12-12-5.373-12-12-12zm-2 4h3v2h3.028v3h-5.27l-.136.012a.75.75 0 0 0 0 1.476l.135.012h2.486l.246.008A3.75 3.75 0 0 1 18.243 29H18v2h-3v-2h-2v-3h5.243l.135-.012a.75.75 0 0 0 0-1.476l-.135-.012h-2.486l-.246-.008A3.75 3.75 0 0 1 15 17.075V15z" /></symbol><symbol fill="currentColor" viewBox="0 0 20 20" id="comments"><path d="M11 12H5.333l-1.501 1.555C3.283 14.378 2 13.989 2 13V6a2 2 0 0 1 2-2h7a2 2 0 0 1 2 2v4a2 2 0 0 1-2 2Z" /><path fill-rule="evenodd" clip-rule="evenodd" d="M18 9a1 1 0 0 0-1-1h-1a1 1 0 0 0-1 1v3a2 2 0 0 1-1.983 2H9a1 1 0 1 0 0 2h6l1.168 1.555c.549.823 1.832.434 1.832-.555m0 0V9v8Z" /></symbol><symbol fill="currentColor" viewBox="0 0 20 20" id="copy"><path d="M3 15a2 2 0 0 0 2 2h7a1 1 0 1 0 0-2H6a1 1 0 0 1-1-1V8a1 1 0 1 0-2 0v7Z" /><path d="M17 11a2 2 0 0 1-2 2H9a2 2 0 0 1-2-2V5a2 2 0 0 1 2-2h6a2 2 0 0 1 2 2v6Z" /></symbol><symbol viewBox="0 0 20 20" id="creator"><path fill="currentColor" d="M19 10a9 9 0 1 1-18 0 9 9 0 0 1 18 0z" /><path fill="#fff" d="M8 5a3 3 0 0 0-3 3v4a3 3 0 0 0 3 3h4a3 3 0 0 0 3-3V8a3 3 0 0 0-3-3H8zm.822 2.734a.5.5 0 0 1 .227.067l3.28 1.863a.5.5 0 0 1 0 .871L9.048 12.4a.5.5 0 0 1-.748-.433V8.234a.5.5 0 0 1 .521-.5z" /></symbol><symbol fill="currentColor" viewBox="0 0 20 20" id="dating"><path d="M10 2a8 8 0 0 0-6.502 12.662 12.895 12.895 0 0 1-1.4 2.558.49.49 0 0 0 .402.78c1.055-.008 2.733-.113 3.996-.806A8 8 0 1 0 10 2ZM8.286 7A2.26 2.26 0 0 1 10 7.79 2.26 2.26 0 0 1 11.714 7C12.977 7 14 8.045 14 9.335c0 2.3-2.484 3.947-3.537 4.542a.933.933 0 0 1-.926 0C8.484 13.282 6 11.634 6 9.335 6 8.045 7.023 7 8.286 7Z" /></symbol><symbol fill="currentColor" viewBox="0 0 20 20" id="delete-file"><path fill-rule="evenodd" clip-rule="evenodd" d="M6 2a2 2 0 0 0-2 2v12a2 2 0 0 0 2 2h8a2 2 0 0 0 2-2V6.828a2 2 0 0 0-.586-1.414l-2.828-2.828A2 2 0 0 0 11.172 2H6Zm1.293 6.293a1 1 0 0 1 1.414 0L10 9.586l1.293-1.293a1 1 0 1 1 1.414 1.414L11.414 11l1.293 1.293a1 1 0 0 1-1.414 1.414L10 12.414l-1.293 1.293a1 1 0 0 1-1.414-1.414L8.586 11 7.293 9.707a1 1 0 0 1 0-1.414Z" /></symbol><symbol viewBox="0 0 48 48" fill="currentColor" id="desktop"><path d="M40.8 7.2H7.2a2.4 2.4 0 0 0-2.4 2.4v24A2.4 2.4 0 0 0 7.2 36h12v4.754h-4.8V43.2h19.2v-2.446l-4.8.046V36h12a2.4 2.4 0 0 0 2.4-2.4v-24a2.4 2.4 0 0 0-2.4-2.4zM38.4 30H9.6V12h28.8v18z" /></symbol><symbol fill="currentColor" viewBox="0 0 20 20" id="dislike"><path d="M10.655 17c.209 0 .4-.118.494-.306l2.742-4.483a1 1 0 0 0 .105-.447V5a1 1 0 0 0-1-1h-6.48A2 2 0 0 0 4.59 5.465l-1.53 5.507A1.6 1.6 0 0 0 4.601 13h4.395v2.342c0 .915.743 1.658 1.659 1.658ZM16.996 11a1 1 0 0 0 1-1V5a1 1 0 1 0-2 0v5a1 1 0 0 0 1 1Z" /></symbol><symbol fill="currentColor" viewBox="0 0 20 20" id="download"><path d="M9 5.098c0-.582-.5-1.048-1.064-.909a6.504 6.504 0 0 0-4.921 5.871A3.001 3.001 0 0 0 1 12.895C1 14.552 2.343 16 4 16h11c2.21 0 4-1.896 4-4.105a4 4 0 0 0-3.531-3.973 6.524 6.524 0 0 0-3.275-3.34c-.587-.267-1.194.21-1.194.856v5.148l1.293-1.293a1 1 0 1 1 1.414 1.414l-3 3a1 1 0 0 1-1.414 0l-3-3a1 1 0 1 1 1.414-1.414L9 10.586V5.098Z" /></symbol><symbol fill="currentColor" viewBox="0 0 20 20" id="download-arrow"><path d="M6.293 7.293a1 1 0 0 0 0 1.414l3.006 3a.999.999 0 0 0 .692.293h.019a1 1 0 0 0 .713-.301l.7-.699-.007-.007 2.29-2.286a1 1 0 0 0 0-1.414 1.002 1.002 0 0 0-1.415 0L11.008 8.57V3a1 1 0 0 0-2.002 0v5.586L7.71 7.293a1.002 1.002 0 0 0-1.416 0Z" /><path fill-rule="evenodd" clip-rule="evenodd" d="M4 11a1 1 0 0 1 1 1v3h10v-3a1 1 0 1 1 2 0v3.5a1.5 1.5 0 0 1-1.5 1.5h-11A1.5 1.5 0 0 1 3 15.5V12a1 1 0 0 1 1-1Z" /></symbol><symbol fill="currentColor" viewBox="0 0 20 20" id="earth"><path fill-rule="evenodd" clip-rule="evenodd" d="M10 18a8 8 0 1 0 0-16 8 8 0 0 0 0 16ZM4.995 6.69a6.002 6.002 0 0 0 3.96 9.22l-.194-.388C8.26 14.52 8 13.418 8 12.299v-.245c0-.63-.403-1.188-1-1.387a2.925 2.925 0 0 1-2-2.775V7c0-.113-.002-.216-.005-.31Zm10.169.253C15.86 7.966 16 8.883 16 10a5.985 5.985 0 0 1-2 4.472V12.51a2 2 0 0 0-1.45-1.923l-1.403-.401a2 2 0 0 1-1.05-.723l-.264-.352a1 1 0 0 1 .483-1.549l1.084-.36c.384-.129.702-.404.883-.766.39-.78 1.144-1.278 1.996-.474.315.298.594.555.885.982Z" /></symbol><symbol fill="currentColor" viewBox="0 0 20 20" id="edit"><path d="M4 17a1 1 0 0 1 .998-1h9.983a1 1 0 0 1 0 2H4.998A1 1 0 0 1 4 17ZM9.002 6.182a.499.499 0 0 1 .706 0l2.117 2.121a.5.5 0 0 1 0 .707l-4.71 4.718a.997.997 0 0 1-.705.293H4.5a.5.5 0 0 1-.5-.5v-1.914a1 1 0 0 1 .292-.707l4.71-4.718ZM12.884 2.293a.997.997 0 0 1 1.412 0l1.412 1.414c.39.39.39 1.024 0 1.414L13.943 6.89a.499.499 0 0 1-.706 0l-2.118-2.121a.5.5 0 0 1 0-.707l1.765-1.768Z" /></symbol><symbol fill="currentColor" viewBox="0 0 20 20" id="edit2"><path d="m14.556 8.485-7.699 7.657L3 17l.862-3.837 7.7-7.658 2.994 2.98Zm1.23-5.022.749.745c.62.617.62 1.617 0 2.234l-1.123 1.117-2.996-2.979 1.124-1.117a1.594 1.594 0 0 1 2.246 0Z" /></symbol><symbol fill="currentColor" viewBox="0 0 20 20" id="enter"><path d="m6.414 14 1.293 1.293a1 1 0 1 1-1.414 1.414l-3-3a1 1 0 0 1 0-1.414l3-3a1 1 0 0 1 1.414 1.414L6.414 12H15V7h-2a1 1 0 1 1 0-2h2.5A1.5 1.5 0 0 1 17 6.5v6a1.5 1.5 0 0 1-1.5 1.5H6.414Z" /></symbol><symbol fill="currentColor" viewBox="0 0 48 48" id="eye"><path d="M24 36.185c-8.924-.177-18.955-7.119-19.2-13.292C5.045 16.719 15.076 9.778 24 9.601c8.924.177 18.955 7.119 19.2 13.292-.245 6.174-10.276 13.115-19.2 13.292zm0-23.631c-5.71 0-10.338 4.629-10.338 10.338S18.291 33.23 24 33.23c5.71 0 10.338-4.629 10.338-10.338S29.709 12.554 24 12.554zm0 14.769a4.431 4.431 0 0 1-4.431-4.431c.026-.2.067-.397.121-.591a2.954 2.954 0 0 0 5.049-2.097 2.815 2.815 0 0 0-.623-1.713 4.43 4.43 0 0 1-.115 8.832z" /></symbol><symbol fill="currentColor" viewBox="0 0 20 20" id="eye-off"><path fill-rule="evenodd" clip-rule="evenodd" d="m5.099 3.68-.392-.392a1 1 0 1 0-1.414 1.414l1.35 1.35c-.779.662-1.489 1.46-2.133 2.36-.68.95-.68 2.227 0 3.177C4.404 14.232 6.864 16 10 16a7.792 7.792 0 0 0 3.68-.91l1.614 1.615a1 1 0 0 0 1.437-1.392L5.12 3.702a1.018 1.018 0 0 1-.022-.023ZM6 10c0-.743.203-1.439.556-2.035l5.479 5.48A4 4 0 0 1 6 10Z" /><path d="M16.767 12.52c.25-.295.49-.607.723-.931.68-.95.68-2.228 0-3.178-1.894-2.643-4.354-4.41-7.49-4.41-.552-.001-1.083.054-1.594.158l1.849 1.849a4 4 0 0 1 3.737 3.738l2.775 2.775Z" /></symbol><symbol fill="currentColor" viewBox="0 0 20 20" id="file"><path fill-rule="evenodd" d="M6 2a2 2 0 0 0-2 2v12a2 2 0 0 0 2 2h8a2 2 0 0 0 2-2V6.828a2 2 0 0 0-.586-1.414l-2.828-2.828A2 2 0 0 0 11.172 2zm0 8a1 1 0 0 1 1-1h6a1 1 0 1 1 0 2H7a1 1 0 0 1-1-1m1 3a1 1 0 1 0 0 2h3a1 1 0 1 0 0-2z" clip-rule="evenodd" /></symbol><symbol fill="currentColor" viewBox="0 0 20 20" id="fire"><path d="M10 18c-3.314 0-6-3.002-6-6.035 0-4.47 4-5.971 5.733-9.729.15-.236.464-.313.689-.147 3.687 2.722 2.986 8.017.578 10.909 2.007 0 3.055-1.93 3.513-3.615A.5.5 0 0 1 15 9c.19.004.348.088.44.258.387.526.56 1.373.56 2.723C15.991 15.289 13.308 18 10 18Z" /></symbol><symbol fill="currentColor" viewBox="0 0 20 20" id="folder"><path d="M8.586 4.586A2 2 0 0 0 7.172 4H4a2 2 0 0 0-2 2v8a2 2 0 0 0 2 2h12a2 2 0 0 0 2-2V8a2 2 0 0 0-2-2h-6L8.586 4.586Z" /></symbol><symbol viewBox="0 0 512 512" fill="currentColor" id="friends"><path d="M408.872 435.2H281.021c-35.919 0-62.796-13.824-44.962-60.672 21.351-55.296 62.042-67.328 109.515-67.328 46.971 0 87.411 11.264 109.013 65.792 19.09 48.896-8.54 62.208-45.715 62.208zM345.6 281.6c-35.346 0-64-28.654-64-64s28.654-64 64-64c35.346 0 64 28.654 64 64s-28.654 64-64 64zm-139.876 128H105.372c-37.376 0-57.344-16.896-53.76-51.712 8.96-86.528 62.464-127.488 126.72-127.488 44.442-2.356 86.278 21.053 107.52 60.16-47.224 21.154-78.303 67.327-80.128 119.04zm-27.392-204.8c-42.416 0-76.8-34.385-76.8-76.8s34.384-76.8 76.8-76.8 76.8 34.385 76.8 76.8-34.385 76.8-76.8 76.8z" /></symbol><symbol fill="currentColor" viewBox="0 0 20 20" id="friends-accept"><path fill-rule="evenodd" clip-rule="evenodd" d="M9.001 9a3 3 0 1 0 0-6 3 3 0 0 0 0 6Zm-4 8h2.935c.385 0 .63-.422.488-.78A5.984 5.984 0 0 1 8 14c0-1.136.315-2.197.863-3.103.224-.37-.021-.897-.453-.897H8.36a4.969 4.969 0 0 0-.595.02c-2.44.117-4.41 1.482-4.761 4.812C2.919 16.183 4 17 5 17Zm12.206-4.293a1 1 0 0 0-1.414-1.414l-2.152 2.151a.2.2 0 0 1-.282 0l-.652-.651a1 1 0 0 0-1.414 1.414l1.493 1.493a1.01 1.01 0 0 0 1.428 0l2.993-2.993Z" /></symbol><symbol viewBox="0 0 48 48" fill="currentColor" id="gay"><path fill="#2d87d4" d="M38.483 31.024c0 5.605-4.544 10.148-10.148 10.148s-10.148-4.544-10.148-10.148c0-.381 4.51-.386 4.51 0a5.638 5.638 0 1 0 5.638-5.638 2.256 2.256 0 0 1 0-4.51 10.1 10.1 0 0 1 5.776 1.803l4.278-4.405h-1.115a2.082 2.082 0 1 1 0-4.164h6.245c.575 0 1.095.233 1.472.61s.61.897.61 1.472v6.245a2.082 2.082 0 1 1-4.164 0v-1.324l-4.46 4.589a10.098 10.098 0 0 1 1.506 5.322zm-15.787-4.49h-4.51c0-3.114-2.524-5.658-5.638-5.658a5.638 5.638 0 1 0 0 11.276 2.256 2.256 0 0 1 0 4.51C6.943 36.662 2.4 32.118 2.4 26.514s4.543-10.148 10.148-10.148c2.097 0 4.046.636 5.664 1.727l4.39-4.329h-1.115a2.082 2.082 0 1 1 0-4.164h6.245c.575 0 1.095.233 1.472.61s.61.897.61 1.472v6.245a2.082 2.082 0 1 1-4.164 0v-1.324l-4.535 4.474a10.144 10.144 0 0 1 1.581 5.457zm-4.51 0h4.51v4.49h-4.51v-4.49z" /></symbol><symbol fill="none" viewBox="0 0 20 20" id="google"><g clip-path="url(#google_a)"><path d="M17.651 10.236a9.99 9.99 0 0 0-.139-1.618h-7.53v3.079h4.313a3.628 3.628 0 0 1-1.6 2.417l2.574 2c1.513-1.409 2.382-3.46 2.382-5.878Z" fill="#4280EF" /><path d="M9.982 18.027c2.157 0 3.965-.713 5.287-1.93l-2.574-1.983c-.713.487-1.635.765-2.713.765-2.087 0-3.843-1.409-4.487-3.287l-2.643 2.035a7.975 7.975 0 0 0 7.13 4.4Z" fill="#34A353" /><path d="M5.496 11.575a4.85 4.85 0 0 1 0-3.061L2.852 6.462a7.993 7.993 0 0 0 0 7.165l2.644-2.052Z" fill="#F6B704" /><path d="M9.982 5.227a4.355 4.355 0 0 1 3.06 1.2l2.28-2.296a7.682 7.682 0 0 0-5.34-2.07 7.975 7.975 0 0 0-7.13 4.4l2.643 2.053c.644-1.896 2.4-3.287 4.487-3.287Z" fill="#E54335" /></g><defs></defs></symbol><clipPath id="google_a"><path fill="#fff" transform="translate(2 2.044)" d="M0 0h15.652v16H0z" /></clipPath><symbol fill="currentColor" viewBox="0 0 20 20" id="heart"><path d="M3 8.002a4.001 4.001 0 0 1 7-2.647 4.001 4.001 0 0 1 7 2.647c0 3.943-4.347 6.767-6.19 7.787a1.662 1.662 0 0 1-1.62 0C7.347 14.77 3 11.945 3 8.002Z" /></symbol><symbol fill="currentColor" viewBox="0 0 20 20" id="help"><path fill-rule="evenodd" clip-rule="evenodd" d="M10 2a8 8 0 1 0 0 16 8 8 0 0 0 0-16ZM8.707 7.707c.448-.448.696-.58.836-.637.65-.26 1.457.218 1.457.93 0 .32-.076.508-.158.638-.092.146-.23.278-.442.437C9 9.918 9 9.929 9 11a1 1 0 0 0 1.919.395c.056-.131.067-.207.076-.265.017-.118.023-.158.383-.433.842-.644 1.615-1.4 1.621-2.46L13 8.003V8c0-.825-.402-1.567-.918-2.082C11.567 5.403 10.825 5 10 5h-.02c-.26 0-.672 0-1.164.197-.485.194-.97.544-1.523 1.096a1 1 0 0 0 1.414 1.414ZM9 14a1 1 0 1 1 2 0 1 1 0 0 1-2 0Z" /></symbol><symbol fill="currentColor" viewBox="0 0 20 20" id="hint-filled"><path d="M10 2a8 8 0 1 0 0 16 8 8 0 0 0 0-16zm.043 3.523c.54 0 1.067.127 1.582.381.515.255.943.615 1.287 1.08a2.496 2.496 0 0 1 .4 2.27c-.077.23-.163.417-.26.562a2.16 2.16 0 0 1-.413.446 3.95 3.95 0 0 1-.428.326 13.96 13.96 0 0 1-.457.266c-.205.117-.373.27-.506.459s-.201.343-.201.46a.29.29 0 0 1-.082.215.292.292 0 0 1-.215.084H8.965a.292.292 0 0 1-.215-.084.292.292 0 0 1-.084-.215v-.334c0-.415.163-.805.488-1.168a3.185 3.185 0 0 1 1.075-.804c.297-.137.508-.276.632-.418.124-.143.186-.333.186-.569 0-.204-.115-.385-.348-.546a1.361 1.361 0 0 0-.795-.243c-.322 0-.59.074-.8.223-.205.149-.47.434-.8.856a.274.274 0 0 1-.232.11.265.265 0 0 1-.177-.054l-1.227-.931c-.143-.112-.17-.242-.076-.391.793-1.32 1.944-1.98 3.451-1.98zm-1.078 7.143h1.785c.087 0 .159.028.215.084a.29.29 0 0 1 .082.215v1.785a.29.29 0 0 1-.082.215.29.29 0 0 1-.215.082H8.965a.29.29 0 0 1-.215-.082.292.292 0 0 1-.084-.215v-1.785a.29.29 0 0 1 .084-.215.292.292 0 0 1 .215-.084z" /></symbol><symbol fill="currentColor" viewBox="0 0 20 20" id="home"><path d="M8.8 2.4 2.4 7.2C1.631 7.777 2.039 9 3 9h1v6a2 2 0 0 0 2 2h1a1 1 0 0 0 1-1v-2a1 1 0 0 1 1-1h2a1 1 0 0 1 1 1v2a1 1 0 0 0 1 1h1a2 2 0 0 0 2-2V9h1c.961 0 1.369-1.223.6-1.8l-6.4-4.8a2 2 0 0 0-2.4 0Z" /></symbol><symbol viewBox="0 0 512 512" fill="currentColor" id="image"><path d="M76.8 51.2h358.4c14.139 0 25.6 11.462 25.6 25.6v358.4c0 14.139-11.462 25.6-25.6 25.6H76.8c-14.139 0-25.6-11.462-25.6-25.6V76.8c0-14.139 11.462-25.6 25.6-25.6zm25.6 51.2v307.2h307.2V102.4H102.4zm181.528 102.4 125.673 153.6h-307.2L186.183 256s39.238 48 62.837 76.8l22.342-15.36-39.797-48.64 52.364-64z" /></symbol><symbol fill="currentColor" viewBox="0 0 20 20" id="info"><path d="M9 10a1 1 0 0 1 2 0v3a1 1 0 1 1-2 0v-3ZM10 6a1 1 0 1 0 0 2 1 1 0 0 0 0-2Z" /><path fill-rule="evenodd" clip-rule="evenodd" d="M10 2a8 8 0 1 0 0 16 8 8 0 0 0 0-16Zm-6 8a6 6 0 1 0 12 0 6 6 0 0 0-12 0Z" /></symbol><symbol fill="currentColor" viewBox="0 0 20 20" id="intro-nav"><path fill-rule="evenodd" clip-rule="evenodd" d="M4 2a2 2 0 0 0-2 2v12a2 2 0 0 0 2 2h12a2 2 0 0 0 2-2V4a2 2 0 0 0-2-2H4Zm3.98 12.2h4.04c1.022 0 1.567-.461 1.469-1.413-.224-2.165-1.468-2.695-3.021-2.772a3.087 3.087 0 0 0-.379-.013h-.178a3.086 3.086 0 0 0-.378.013c-1.553.077-2.798.607-3.022 2.772-.098.952.447 1.414 1.469 1.414Zm.014-6.182A2.1 2.1 0 0 0 9.949 9.3a2.09 2.09 0 0 0 2.079-2.1 2.1 2.1 0 1 0-4.034.818Z" /></symbol><symbol fill="currentColor" viewBox="0 0 20 20" id="large-mode"><path fill-rule="evenodd" clip-rule="evenodd" d="M4 4a2 2 0 0 0-2 2v8a2 2 0 0 0 2 2h12a2 2 0 0 0 2-2V6a2 2 0 0 0-2-2H4Zm.5 2a.5.5 0 0 0-.5.5v7a.5.5 0 0 0 .5.5h11a.5.5 0 0 0 .5-.5v-7a.5.5 0 0 0-.5-.5h-11Z" /></symbol><symbol fill="currentColor" viewBox="0 0 20 20" id="like"><path d="M10.342 3c-.21 0-.401.118-.495.306L7.106 7.789A1 1 0 0 0 7 8.236V15a1 1 0 0 0 1 1h6.48a2 2 0 0 0 1.927-1.465l1.53-5.507A1.6 1.6 0 0 0 16.395 7H12V4.658C12 3.742 11.258 3 10.342 3ZM4 9a1 1 0 0 0-1 1v5a1 1 0 1 0 2 0v-5a1 1 0 0 0-1-1Z" /></symbol><symbol fill="currentColor" viewBox="0 0 20 20" id="link"><path fill-rule="evenodd" d="M14.883 4.95a3 3 0 0 0-4.242 0L9.226 6.364A1 1 0 0 1 7.812 4.95l1.414-1.414a5 5 0 0 1 7.071 7.07l-1.414 1.415a1 1 0 0 1-1.414-1.414l1.414-1.414a3 3 0 0 0 0-4.243Zm-9.9 9.9a3 3 0 0 0 4.243 0l1.414-1.415a1 1 0 0 1 1.415 1.414l-1.415 1.414a5 5 0 1 1-7.07-7.07l1.414-1.415a1 1 0 1 1 1.414 1.414l-1.414 1.415a3 3 0 0 0 0 4.242Zm7.072-7.072a1 1 0 0 0-1.414 0l-2.829 2.829a1 1 0 1 0 1.414 1.414l2.829-2.828a1 1 0 0 0 0-1.415Z" clip-rule="evenodd" /></symbol><symbol fill="currentColor" viewBox="0 0 20 20" id="lock"><path fill-rule="evenodd" clip-rule="evenodd" d="M14 7a2 2 0 0 1 2 2v6a2 2 0 0 1-2 2H6a2 2 0 0 1-2-2V9a2 2 0 0 1 2-2V6a4 4 0 1 1 8 0v1ZM8 7h4V6a2 2 0 1 0-4 0v1Z" /></symbol><symbol fill="currentColor" viewBox="0 0 20 20" id="login"><path d="M7 4h7v12H7a1 1 0 1 0 0 2h7.5a1.5 1.5 0 0 0 1.5-1.5v-13A1.5 1.5 0 0 0 14.5 2H7a1 1 0 1 0 0 2Z" /><path d="M4 10a1 1 0 0 1 1-1h3.586l-.293-.293a1 1 0 0 1 1.414-1.414l2 2a1 1 0 0 1 0 1.414l-2 2a1 1 0 0 1-1.414-1.414L8.586 11H5a1 1 0 0 1-1-1Z" /></symbol><symbol fill="currentColor" viewBox="0 0 20 20" id="logout"><path d="M6 4h7a1 1 0 1 0 0-2H5.5A1.5 1.5 0 0 0 4 3.5v13A1.5 1.5 0 0 0 5.5 18H13a1 1 0 1 0 0-2H6V4Z" /><path d="M9 9a1 1 0 0 0 0 2h3.586l-.293.293a1 1 0 0 0 1.414 1.414l2-2a1 1 0 0 0 0-1.414l-2-2a1 1 0 1 0-1.414 1.414l.293.293H9Z" /></symbol><symbol viewBox="0 0 48 48" fill="currentColor" id="message"><path d="M41.441 22.708c.463.001.907.206 1.233.571s.51.859.509 1.375v8.247c.034 4.322-3.085 7.857-6.967 7.899H11.793c-3.888-.035-7.014-3.571-6.984-7.899v-8.229c-.102-1.079.6-2.047 1.57-2.163.958-.11 17.617 6.072 17.617 6.072s16.484-5.871 17.445-5.874zm-17.439 1.203a1.758 1.758 0 0 1-.549-.101L6.008 15.905c-.827-.314-1.321-1.258-1.158-2.215.549-3.635 1.701-6.491 6.948-6.491h24.423c5.266 0 6.391 2.856 6.951 6.491.151.959-.347 1.899-1.174 2.215L24.551 23.81a1.848 1.848 0 0 1-.549.101z" /></symbol><symbol fill="currentColor" viewBox="0 0 20 20" id="microphone-off"><path d="M4.697 3.283a1 1 0 0 0-1.404 1.424L7 8.414V9a3 3 0 0 0 3.538 2.952l1.57 1.57A4.83 4.83 0 0 1 10 14c-1.67 0-3.299-.834-4.106-2.447a1 1 0 0 0-1.788.894C5.127 14.49 7.023 15.64 9 15.927V17a1 1 0 1 0 2 0v-1.073a6.733 6.733 0 0 0 2.579-.934l1.714 1.714a1 1 0 0 0 1.425-1.404L4.697 3.283ZM13 8.586V5a3 3 0 0 0-5.394-1.808L13 8.586Z" /></symbol><symbol fill="currentColor" viewBox="0 0 20 20" id="microphone-on"><path d="M10 12a3 3 0 0 1-3-3V5a3 3 0 1 1 6 0v4a3 3 0 0 1-3 3Z" /><path d="M10 18a1 1 0 0 1-1-1v-1.073c-1.976-.288-3.873-1.437-4.894-3.48a1 1 0 0 1 1.789-.894C6.7 13.166 8.33 14 10 14c1.67 0 3.299-.834 4.106-2.447a1 1 0 0 1 1.789.894c-1.022 2.043-2.918 3.192-4.895 3.48V17a1 1 0 0 1-1 1Z" /></symbol><symbol fill="currentColor" viewBox="0 0 20 20" id="minus"><path d="M3.874 9C3.39 9 3 9.447 3 9.999c0 .551.391.999.874.999h2.639V11h9.612c.483 0 .875-.448.875-1s-.392-1-.875-1H3.874Z" /></symbol><symbol viewBox="0 0 16 16" fill="currentColor" id="moments"><path d="M7.238.04C8.242-.06 9 .82 9 1.828v2.42a.5.5 0 0 1-.75.432L3.719 2.064c-.307-.177-.336-.607-.037-.798A8.077 8.077 0 0 1 7.238.04ZM3.152 4.046c-.872-.503-2.01-.288-2.43.628a7.97 7.97 0 0 0-.714 3.697c.017.355.404.546.712.368l4.53-2.615a.5.5 0 0 0 0-.866L3.152 4.046ZM1.483 12.641c-.586-.82-.204-1.915.67-2.42l2.097-1.21a.5.5 0 0 1 .75.432v5.234c0 .354-.359.595-.674.432a8.038 8.038 0 0 1-2.843-2.468ZM7 14.172c0 1.009.758 1.887 1.762 1.789a8.078 8.078 0 0 0 3.556-1.226c.299-.191.27-.622-.037-.8L7.75 11.32a.5.5 0 0 0-.75.433v2.42ZM15.278 11.326c-.42.916-1.558 1.131-2.43.628l-2.098-1.212a.5.5 0 0 1 0-.866l4.53-2.615c.308-.178.695.013.712.368a8.03 8.03 0 0 1-.714 3.697ZM13.847 5.779c.874-.504 1.255-1.6.67-2.42A8.037 8.037 0 0 0 11.674.892C11.359.729 11 .969 11 1.323v5.234a.5.5 0 0 0 .75.433l2.097-1.211Z" /></symbol><symbol fill="currentColor" viewBox="0 0 20 20" id="moon"><path d="M11.5 2.14c-.442-.083-.652.507-.339.83a6.5 6.5 0 0 1-7.436 10.41c-.407-.193-.897.197-.673.588A8 8 0 1 0 11.5 2.141Z" /></symbol><symbol fill="currentColor" viewBox="0 0 20 20" id="more-vertical"><path d="M8 4a2 2 0 1 1 4 0 2 2 0 0 1-4 0ZM8 10a2 2 0 1 1 4 0 2 2 0 0 1-4 0ZM10 14a2 2 0 1 0 0 4 2 2 0 0 0 0-4Z" /></symbol><symbol fill="currentColor" viewBox="0 0 20 20" id="move"><path d="M10 8a1 1 0 0 1-1-1V5.414l-.293.293a1 1 0 0 1-1.414-1.414l2-2a1 1 0 0 1 1.414 0l2 2a1 1 0 0 1-1.414 1.414L11 5.414V7a1 1 0 0 1-1 1ZM7 9a1 1 0 0 1 0 2H5.414l.293.293a1 1 0 1 1-1.414 1.414l-2-2a1 1 0 0 1 0-1.414l2-2a1 1 0 0 1 1.414 1.414L5.414 9H7ZM13 9a1 1 0 1 0 0 2h1.586l-.293.293a1 1 0 0 0 1.414 1.414l2-2a1 1 0 0 0 0-1.414l-2-2a1 1 0 1 0-1.414 1.414l.293.293H13ZM9 13a1 1 0 1 1 2 0v1.586l.293-.293a1 1 0 0 1 1.414 1.414l-2 2a1 1 0 0 1-1.414 0l-2-2a1 1 0 1 1 1.414-1.414l.293.293V13Z" /></symbol><symbol fill="currentColor" viewBox="0 0 36 20" id="new"><rect width="36" height="20" rx="10" fill="#E34449" /><path d="M13.822 5.469V14h-1.757L8.637 8.281V14H6.879V5.469h1.758l3.433 5.724V5.47h1.752Zm4.342 8.648a3.54 3.54 0 0 1-1.324-.234c-.39-.16-.723-.381-.996-.662a2.94 2.94 0 0 1-.621-.979 3.293 3.293 0 0 1-.217-1.195v-.235c0-.48.068-.92.205-1.318.137-.398.332-.744.586-1.037.258-.293.57-.518.937-.674.368-.16.782-.24 1.243-.24.449 0 .847.074 1.195.223.348.148.639.359.873.632.238.274.418.602.539.985.121.379.182.8.182 1.265v.704h-5.04v-1.125h3.381v-.13c0-.234-.043-.443-.128-.626a.995.995 0 0 0-.375-.446c-.168-.109-.383-.164-.645-.164-.223 0-.414.05-.574.147-.16.097-.291.234-.393.41a2.231 2.231 0 0 0-.223.621c-.046.234-.07.492-.07.774v.234c0 .254.035.488.106.703.074.215.177.4.31.557.137.156.301.277.492.363.196.086.416.129.663.129.304 0 .587-.059.85-.176.265-.121.493-.303.685-.545l.82.89a2.495 2.495 0 0 1-.545.552c-.226.175-.5.32-.82.433-.32.11-.686.164-1.096.164Zm5.373-1.758 1.319-4.699h1.072l-.346 1.846L24.264 14h-.897l.17-1.64ZM22.87 7.66l.944 4.694L23.9 14h-1.054L21.24 7.66h1.63Zm4.266 4.617.92-4.617h1.634L28.084 14h-1.049l.1-1.723Zm-1.06-4.617 1.312 4.664.181 1.676h-.902l-1.318-4.488-.334-1.852h1.06Z" fill="#F5F5F5" /></symbol><symbol fill="currentColor" viewBox="0 0 20 20" id="newest"><path d="M8.646 11.288a1.064 1.064 0 0 1-.313-.755v-3.2a1.067 1.067 0 0 1 2.134 0v2.134H12.6a1.067 1.067 0 1 1 0 2.133H9.4c-.295 0-.561-.12-.754-.312Z" /><path d="M15.988 10h-1.004l2.008 3L19 10h-1.004c0-4.418-3.596-8-8.031-8-4.436 0-8.032 3.582-8.032 8s3.596 8 8.032 8a8.022 8.022 0 0 0 5.679-2.343l-1.42-1.414A6.017 6.017 0 0 1 9.964 16c-3.326 0-6.023-2.686-6.023-6s2.697-6 6.024-6c3.326 0 6.023 2.686 6.023 6Z" /></symbol><symbol viewBox="0 0 512 512" fill="currentColor" id="newest-videos"><path d="M299.997 25.6 281.6 204.8h115.2L187.697 486.4 217.6 307.2H102.4z" /></symbol><symbol viewBox="0 0 512 512" fill="currentColor" id="news"><path d="M256 384 153.6 486.4V384h-51.2c-28.242-.084-51.115-22.958-51.2-51.2V102.4c.084-28.242 22.958-51.115 51.2-51.2h308.256c28.242.084 51.115 22.958 51.2 51.2v230.4c-.084 28.242-22.958 51.115-51.2 51.2H256zM153.6 281.6h128c14.139 0 25.6-11.462 25.6-25.6s-11.462-25.6-25.6-25.6h-128c-14.138 0-25.6 11.462-25.6 25.6s11.462 25.6 25.6 25.6zm205.856-128H153.6c-14.138 0-25.6 11.462-25.6 25.6s11.462 25.6 25.6 25.6h205.856c14.139 0 25.6-11.462 25.6-25.6s-11.462-25.6-25.6-25.6z" /></symbol><symbol fill="currentColor" viewBox="0 0 20 20" id="nft"><path d="M19.6 8.7 16 2.4c-.5-.9-1.4-1.4-2.4-1.4H6.4c-1 0-1.9.5-2.4 1.4L.4 8.7c-.5.8-.5 1.9 0 2.7L4 17.6c.5.9 1.4 1.4 2.4 1.4h7.2c1 0 1.9-.5 2.4-1.4l3.6-6.3c.5-.8.5-1.8 0-2.6zM7.7 12h-1l-1.8-2h-.1v2H3.5V8h1.1l1.7 2h.1V8h1.3v4zM12 8.9h-1.9v.8h1.7v.9h-1.7V12H8.7V8H12v.9zm4.5 0h-1.3V12h-1.4V8.9h-1.3V8h3.9v.9z" /></symbol><symbol fill="currentColor" viewBox="0 0 20 20" id="open-link"><path d="M12 4.012 6.814 9.666 5.4 8.252l5.123-5.586H8v-2h5a1 1 0 0 1 1 1v5h-2V4.013ZM6 2.667v2H2v8h8v-4h2v5a1 1 0 0 1-1 1H1a1 1 0 0 1-1-1v-10a1 1 0 0 1 1-1h5Z" /></symbol><symbol fill="currentColor" viewBox="0 0 20 20" id="pause"><path d="M6 3a2 2 0 0 0-2 2v10a2 2 0 1 0 4 0V5a2 2 0 0 0-2-2ZM14 3a2 2 0 0 0-2 2v10a2 2 0 1 0 4 0V5a2 2 0 0 0-2-2Z" /></symbol><symbol viewBox="0 0 48 48" fill="currentColor" id="phone"><path d="M33.6 2.424 14.4 2.4c-2.64 0-4.8 2.16-4.8 4.8v33.204c0 2.64 2.16 4.8 4.8 4.8h19.2c2.64 0 4.8-2.16 4.8-4.8V7.2c0-2.64-2.16-4.776-4.8-4.776zm0 35.976H14.4V9.6h19.2v28.8z" /></symbol><symbol viewBox="0 0 48 48" fill="currentColor" id="photo"><path d="M12 8.4a3.6 3.6 0 0 1 3.6-3.6h16.8A3.6 3.6 0 0 1 36 8.4a3.923 3.923 0 0 1-.216 1.2H12.216A3.923 3.923 0 0 1 12 8.4zM9.6 12h28.8a4.814 4.814 0 0 1 4.8 4.8V36a4.814 4.814 0 0 1-4.8 4.8H9.6A4.814 4.814 0 0 1 4.8 36V16.8A4.814 4.814 0 0 1 9.6 12zM24 36c5.302 0 9.6-4.298 9.6-9.6s-4.298-9.6-9.6-9.6-9.6 4.298-9.6 9.6S18.698 36 24 36zm0-14.4a4.8 4.8 0 1 1-4.8 4.8 4.814 4.814 0 0 1 4.8-4.8z" /></symbol><symbol fill="currentColor" viewBox="0 0 72 72" id="photo-off"><path fill-rule="evenodd" clip-rule="evenodd" d="M8.518 21.049a.204.204 0 0 0-.02-.262l-3.842-3.842a3.6 3.6 0 0 1 5.091-5.09l50.4 50.4a3.6 3.6 0 0 1-5.091 5.09l-6.087-6.087a.2.2 0 0 0-.141-.058H14.402a7.2 7.2 0 0 1-7.2-7.2V25.2c0-1.546.487-2.978 1.316-4.151Zm32.126 31.885a.197.197 0 0 1-.075.326c-1.435.48-2.97.74-4.567.74-7.953 0-14.4-6.447-14.4-14.4 0-1.597.26-3.133.74-4.568a.197.197 0 0 1 .326-.075l17.976 17.977ZM50.402 39.6c0 .775-.062 1.536-.18 2.278a.51.51 0 0 0 .142.441L63.84 55.797c.261.26.702.157.783-.203A7.22 7.22 0 0 0 64.802 54V25.2a7.2 7.2 0 0 0-7.2-7.2h-7.2c-1.989 0-3.526-1.709-4.48-3.453a7.198 7.198 0 0 0-6.32-3.747h-7.2a7.198 7.198 0 0 0-6.32 3.747 9.652 9.652 0 0 1-1.132 1.657.528.528 0 0 0 .015.716l8.317 8.318a.51.51 0 0 0 .442.141c.742-.118 1.502-.18 2.278-.18 7.953 0 14.4 6.448 14.4 14.4Z" /></symbol><symbol fill="currentColor" viewBox="0 0 20 20" id="play"><path d="M6.438 3.225C5.382 2.622 4 3.303 4 4.425v11.15c0 1.123 1.382 1.803 2.438 1.2l9.864-5.633c.93-.532.93-1.752 0-2.284L6.438 3.225Z" /></symbol><symbol fill="currentColor" viewBox="0 0 20 20" id="play-circle"><path fill-rule="evenodd" clip-rule="evenodd" d="M10 2a8 8 0 1 0 0 16 8 8 0 0 0 0-16ZM8.937 7.097A.61.61 0 0 0 8 7.61v4.778a.61.61 0 0 0 .937.514l3.794-2.414a.58.58 0 0 0 0-.978L8.938 7.097Z" /></symbol><symbol fill="currentColor" viewBox="0 0 20 20" id="play-small"><path d="M7.688 5.16C6.957 4.73 6 5.217 6 6.019v7.964c0 .802.957 1.288 1.688.857l6.829-4.023a.93.93 0 0 0 0-1.632l-6.83-4.023Z" /></symbol><symbol fill="currentColor" viewBox="0 0 20 20" id="plus"><path d="M9.999 17C9.447 17 9 16.609 9 16.126V11H6.513v-.002h-2.64c-.482 0-.873-.448-.873-1 0-.55.391-.998.874-.998H9V3.875C9 3.392 9.448 3 10 3s1 .392 1 .875V9h5.125c.483 0 .875.448.875 1s-.392 1-.875 1H11v2.487h-.002v2.64c0 .482-.448.873-1 .873Z" /></symbol><symbol fill="currentColor" viewBox="0 0 20 20" id="plus-circle"><path fill-rule="evenodd" clip-rule="evenodd" d="M10 2a8 8 0 1 0 0 16 8 8 0 0 0 0-16ZM9 13.126c0 .483.447.874.999.874.551 0 .999-.391.999-.874v-.639H11V11h2.125c.483 0 .875-.448.875-1s-.392-1-.875-1H11V6.875C11 6.392 10.552 6 10 6s-1 .392-1 .875V9H6.874C6.39 9 6 9.447 6 9.999c0 .551.391.999.874.999h.639V11H9v2.126Z" /></symbol><symbol fill="currentColor" viewBox="0 0 20 20" id="post"><path d="M8 5H5v10h10v-3a1 1 0 1 1 2 0v3.5a1.5 1.5 0 0 1-1.5 1.5h-11A1.5 1.5 0 0 1 3 15.5v-11A1.5 1.5 0 0 1 4.5 3H8a1 1 0 0 1 0 2Z" /><path d="M14.879 3.293a1 1 0 0 1 1.414 0l.415.414a1 1 0 0 1 0 1.414l-6.587 6.587a.996.996 0 0 1-.426.253A.498.498 0 0 1 9.5 12h-.047a1.006 1.006 0 0 1-.078 0H8.5a.5.5 0 0 1-.5-.5v-1c0-.07.015-.137.04-.198.047-.155.13-.3.253-.423l6.586-6.586Z" /></symbol><symbol fill="currentColor" viewBox="0 0 20 20" id="print"><path fill-rule="evenodd" clip-rule="evenodd" d="M14 2H6a1 1 0 0 0-1 1v4H4a2 2 0 0 0-2 2v4a2 2 0 0 0 2 2h1v1a1 1 0 0 0 1 1h8a1 1 0 0 0 1-1v-1h1a2 2 0 0 0 2-2V9a2 2 0 0 0-2-2h-1V3a1 1 0 0 0-1-1ZM7 13h6v2H7v-2Zm0-6h6V4H7v3Zm7 2a1 1 0 1 0 0 2 1 1 0 0 0 0-2Z" /></symbol><symbol fill="currentColor" viewBox="0 0 20 20" id="redo"><path d="m14.586 6-1.293-1.293a1 1 0 0 1 1.414-1.414l3 3a1 1 0 0 1 0 1.414l-3 3a1 1 0 0 1-1.414-1.414L14.586 8H7.5a2.5 2.5 0 0 0 0 5H10a1 1 0 1 1 0 2H7.5a4.5 4.5 0 1 1 0-9h7.086Z" /></symbol><symbol fill="currentColor" viewBox="0 0 20 20" id="refresh"><path d="M17 3a1 1 0 0 1 1 1l-.005 2.999c0 .27-.107.516-.282.696l-.013.013a.998.998 0 0 1-.717.292H14c-.553 0-1-.447-1-1 0-.552.449-1 1.001-1h.47A6 6 0 0 0 4.25 8.286a1 1 0 0 1-1.917-.57 8 8 0 0 1 13.666-3.01v-.706c0-.552.448-1 1.001-1.001ZM16.994 11.043a1 1 0 0 1 .672 1.244 8 8 0 0 1-13.665 3.006v.706C4.001 16.552 3.553 17 3 17a1 1 0 0 1-1-1l.004-2.998c0-.27.108-.516.283-.696l.013-.014A.998.998 0 0 1 3 12h3a1 1 0 0 1 1 1c0 .553-.449 1-1.001 1.001h-.47a6 6 0 0 0 10.22-2.286 1 1 0 0 1 1.245-.672Z" /></symbol><symbol fill="currentColor" viewBox="0 0 20 20" id="reload"><path d="M18 4a1 1 0 0 0-1-1c-.553 0-1 .449-1.001 1.001v.706a7.998 7.998 0 0 0-13.666 3.01 8 8 0 0 0 15.333 4.57 1 1 0 1 0-1.917-.572A6 6 0 1 1 14.473 6h-.47A.999.999 0 1 0 14 8L16.982 8a1.003 1.003 0 0 0 .717-.292l.013-.013a.998.998 0 0 0 .282-.696L18 4Z" /></symbol><symbol fill="currentColor" viewBox="0 0 20 20" id="reply"><path d="m17.71 8.29-5.081-5.067S12.389 3 11.999 3c-.55 0-1 .45-1 1v1.8a.2.2 0 0 1-.199.2H8c-3.31 0-6 2.69-6 6 0 2.108 1.156 3.918 2.402 4.8.344.262.918.3 1.308-.09s.302-.898.204-1.128c-1.472-3.975 2.375-3.605 4.886-3.583.11.001.2.09.2.201V14c0 .626.527 1 1 1 .288.013.564-.144.71-.29l5-5c.39-.39.39-1.03 0-1.42Z" /></symbol><symbol fill="currentColor" viewBox="0 0 20 20" id="report"><path d="M3.005 3.898A1.013 1.013 0 0 0 3 4v12a1 1 0 1 0 2 0v-5h5l1 1.5c.17.339.621.5 1 .5h4a1 1 0 0 0 1-1V6a1 1 0 0 0-1-1h-4s-.83-1.161-1-1.5c-.17-.339-.621-.5-1-.5H4a1 1 0 0 0-.995.898Z" /></symbol><symbol fill="currentColor" viewBox="0 0 20 20" id="report-check"><path d="M3.005 3.898A1.013 1.013 0 0 0 3 4v12a1 1 0 1 0 2 0v-5h6.172a2 2 0 0 0 1.414-.586l.828-.828A2 2 0 0 1 14.828 9H17V6a1 1 0 0 0-1-1h-4s-.83-1.161-1-1.5c-.17-.339-.621-.5-1-.5H4a1 1 0 0 0-.995.898Z" /><path d="m12 14.586-1.293-1.293a1 1 0 0 0-1.414 1.414l2 2a1 1 0 0 0 1.414 0l4-4a1 1 0 0 0-1.414-1.414L12 14.586Z" /></symbol><symbol fill="none" viewBox="0 0 20 20" id="resume-upload"><path fill="currentColor" fill-rule="evenodd" d="M3.5 4A1.5 1.5 0 0 0 2 5.5v9a1.5 1.5 0 0 0 3 0v-9A1.5 1.5 0 0 0 3.5 4M7 5.222c0-.963 1.17-1.546 2.063-1.03l8.346 4.83c.788.455.788 1.5 0 1.957l-8.346 4.828C8.169 16.324 7 15.741 7 14.777z" clip-rule="evenodd" /></symbol><symbol viewBox="0 0 48 48" fill="currentColor" id="retired-avatar"><path d="M45.158 44.8C39.761 39.346 32.275 35.968 24 35.968S8.238 39.346 2.844 44.797l-.003.003-2.819-2.842C6.134 35.769 14.619 31.935 24 31.935s17.866 3.833 23.974 10.019l.003.003zM16.019 7.165l.002.113a3.99 3.99 0 0 1-7.98 0l.002-.119v.006a3.99 3.99 0 1 1 7.978-.113l-.002.119v-.006zm23.939 0a3.99 3.99 0 0 1-7.98 0 3.99 3.99 0 0 1 7.98 0z" /></symbol><symbol fill="currentColor" viewBox="0 0 20 20" id="round-check"><path fill-rule="evenodd" clip-rule="evenodd" d="M10 2a8 8 0 1 0 0 16 8 8 0 0 0 0-16ZM8.3 12.707l-2.007-2a1 1 0 0 1 0-1.414 1.002 1.002 0 0 1 1.416 0l1.294 1.287 1.005-1.009 2.283-2.278a1.002 1.002 0 0 1 1.416 0 1 1 0 0 1 0 1.414L10.423 12l-.7.699A1.003 1.003 0 0 1 9.01 13H8.99a.999.999 0 0 1-.692-.293Z" /></symbol><symbol fill="currentColor" viewBox="0 0 20 20" id="round-dollar"><path fill-rule="evenodd" d="M2 10a8 8 0 1 0 16 0 8 8 0 0 0-16 0Zm7.6 4.83a.67.67 0 0 0 .49.2.658.658 0 0 0 .5-.2c.134-.133.2-.3.2-.5v-.547c.36-.069.68-.183.96-.343.347-.193.617-.443.81-.75.194-.307.29-.66.29-1.06 0-.513-.153-.93-.46-1.25-.3-.327-.766-.56-1.4-.7l-1.14-.25c-.293-.067-.496-.143-.61-.23a.436.436 0 0 1-.16-.34c0-.2.094-.363.28-.49.194-.127.467-.19.82-.19.294 0 .534.023.72.07.194.04.367.093.52.16.207.087.384.113.53.08a.64.64 0 0 0 .36-.23.689.689 0 0 0 .16-.38.746.746 0 0 0-.07-.43.667.667 0 0 0-.32-.33 2.776 2.776 0 0 0-.77-.31 3.863 3.863 0 0 0-.52-.106V6.2c0-.2-.066-.367-.2-.5a.678.678 0 0 0-.5-.2.666.666 0 0 0-.49.2.68.68 0 0 0-.2.5v.544a3.152 3.152 0 0 0-.96.336c-.353.2-.63.46-.83.78-.193.313-.29.67-.29 1.07 0 .527.15.957.45 1.29.307.327.77.56 1.39.7l1.13.24c.2.047.357.1.47.16a.552.552 0 0 1 .24.19c.054.067.08.15.08.25a.476.476 0 0 1-.11.3c-.066.087-.183.157-.35.21-.16.053-.38.08-.66.08-.4 0-.736-.037-1.01-.11a3.255 3.255 0 0 1-.6-.23c-.2-.087-.376-.107-.53-.06a.65.65 0 0 0-.36.25.892.892 0 0 0-.17.42.886.886 0 0 0 .08.45c.074.147.197.26.37.34.207.093.474.187.8.28.252.072.538.122.86.15v.49c0 .2.067.367.2.5Z" clip-rule="evenodd" /></symbol><symbol fill="currentColor" viewBox="0 0 20 20" id="search"><path fill-rule="evenodd" clip-rule="evenodd" d="M11.476 12.89a6 6 0 1 1 1.414-1.414l3.817 3.817a1 1 0 1 1-1.414 1.414l-3.816-3.816ZM12 8a4 4 0 1 1-8 0 4 4 0 0 1 8 0Z" /></symbol><symbol fill="currentColor" viewBox="0 0 20 20" id="search-alt"><path fill-rule="evenodd" clip-rule="evenodd" d="M13.192 14.606a7 7 0 1 1 1.414-1.414l2.101 2.1a1 1 0 0 1-1.414 1.415l-2.1-2.1ZM14 9A5 5 0 1 1 4 9a5 5 0 0 1 10 0Z" /></symbol><symbol fill="currentColor" viewBox="0 0 48 48" id="search-compact"><path d="M28.097 28.096a2.4 2.4 0 0 1 3.394 0l8.485 8.485a2.4 2.4 0 0 1-3.394 3.394l-8.485-8.485a2.4 2.4 0 0 1 0-3.394zM21.594 33.6C13.644 33.6 7.2 27.153 7.2 19.2S13.645 4.8 21.594 4.8c7.95 0 14.394 6.447 14.394 14.4s-6.445 14.4-14.394 14.4zm0-4.8c5.3 0 9.596-4.298 9.596-9.6s-4.296-9.6-9.596-9.6-9.596 4.298-9.596 9.6 4.296 9.6 9.596 9.6z" /></symbol><symbol fill="currentColor" viewBox="0 0 20 20" id="send"><path d="M2.702 7.232A2 2 0 0 0 4.28 8.74l5.224.694a.57.57 0 0 1 0 1.132l-5.224.694a2 2 0 0 0-1.578 1.508l-.626 2.66c-.358.96.609 1.882 1.544 1.472a3313.164 3313.164 0 0 1 13.777-5.98c.804-.348.804-1.492 0-1.84A3317.069 3317.069 0 0 1 3.62 3.1c-.935-.41-1.902.512-1.544 1.472l.626 2.66Z" /></symbol><symbol fill="currentColor" viewBox="0 0 20 20" id="settings"><path fill-rule="evenodd" clip-rule="evenodd" d="M8 3a1 1 0 0 1 1-1h2a1 1 0 0 1 1 1v.634c0 .424.271.795.651.982.238.117.466.25.685.396.352.236.809.286 1.176.074l.55-.318a1 1 0 0 1 1.366.366l1 1.732a1 1 0 0 1-.366 1.366l-.55.318c-.367.212-.553.631-.525 1.054a6.121 6.121 0 0 1 0 .793c-.028.422.158.841.525 1.053l.55.318a1 1 0 0 1 .366 1.366l-1 1.732a1 1 0 0 1-1.366.366l-.55-.318c-.368-.212-.824-.162-1.176.074a5.99 5.99 0 0 1-.685.396c-.38.188-.651.558-.651.982V17a1 1 0 0 1-1 1H9a1 1 0 0 1-1-1v-.634c0-.424-.271-.794-.651-.982a5.997 5.997 0 0 1-.685-.396c-.352-.236-.809-.286-1.176-.074l-.55.318a1 1 0 0 1-1.366-.366l-1-1.732a1 1 0 0 1 .366-1.366l.55-.318c.367-.211.552-.631.525-1.053a6.09 6.09 0 0 1 0-.794c.027-.422-.158-.842-.525-1.053l-.55-.318a1 1 0 0 1-.366-1.366l1-1.732a1 1 0 0 1 1.366-.366l.55.318c.367.212.824.162 1.176-.074.219-.146.447-.279.685-.396.38-.187.65-.558.65-.982V3Zm2 10a3 3 0 1 1 0-6 3 3 0 0 1 0 6Z" /></symbol><symbol fill="currentColor" viewBox="0 0 20 20" id="settings-4k"><path fill-rule="evenodd" clip-rule="evenodd" d="M8 3a1 1 0 0 1 1-1h2a1 1 0 0 1 1 1v.634c0 .424.271.795.651.982.238.117.466.25.685.396.352.236.809.286 1.176.074l.55-.318a1 1 0 0 1 1.366.366l1 1.732a1 1 0 0 1-.366 1.366l-.55.318c-.367.212-.553.631-.525 1.054a6.121 6.121 0 0 1 0 .793c-.028.422.158.841.525 1.053l.55.318a1 1 0 0 1 .366 1.366l-1 1.732a1 1 0 0 1-1.366.366l-.55-.318c-.368-.212-.824-.162-1.176.074a5.99 5.99 0 0 1-.685.396c-.38.188-.651.558-.651.982V17a1 1 0 0 1-1 1H9a1 1 0 0 1-1-1v-.634c0-.424-.271-.794-.651-.982a5.997 5.997 0 0 1-.685-.396c-.352-.236-.809-.286-1.176-.074l-.55.318a1 1 0 0 1-1.366-.366l-1-1.732a1 1 0 0 1 .366-1.366l.55-.318c.367-.211.552-.631.525-1.053a6.09 6.09 0 0 1 0-.794c.027-.422-.158-.842-.525-1.053l-.55-.318a1 1 0 0 1-.366-1.366l1-1.732a1 1 0 0 1 1.366-.366l.55.318c.367.212.824.162 1.176-.074.219-.146.447-.279.685-.396.38-.187.65-.558.65-.982V3Zm2 10a3 3 0 1 1 0-6 3 3 0 0 1 0 6Z" /><rect x="4" width="16" height="11" rx="2" fill="#2D87D4" /><path d="M11.5 7.5V6h-1V3H9v3H7.5V3H6v4.5h3V9h1.5V7.5h1ZM18 9l-2.25-3L18 3h-1.75L14.5 5.25V3H13v6h1.5V6.75L16.25 9H18Z" /><path d="M11.5 6.5V5h-1V2H9v3H7.5V2H6v4.5h3V8h1.5V6.5h1ZM18 8l-2.25-3L18 2h-1.75L14.5 4.25V2H13v6h1.5V5.75L16.25 8H18Z" fill="#F5F5F5" /></symbol><symbol fill="currentColor" viewBox="0 0 20 20" id="settings-hd"><path fill-rule="evenodd" clip-rule="evenodd" d="M8 3a1 1 0 0 1 1-1h2a1 1 0 0 1 1 1v.634c0 .424.271.795.651.982.238.117.466.25.685.396.352.236.809.286 1.176.074l.55-.318a1 1 0 0 1 1.366.366l1 1.732a1 1 0 0 1-.366 1.366l-.55.318c-.367.212-.553.631-.525 1.054a6.121 6.121 0 0 1 0 .793c-.028.422.158.841.525 1.053l.55.318a1 1 0 0 1 .366 1.366l-1 1.732a1 1 0 0 1-1.366.366l-.55-.318c-.368-.212-.824-.162-1.176.074a5.99 5.99 0 0 1-.685.396c-.38.188-.651.558-.651.982V17a1 1 0 0 1-1 1H9a1 1 0 0 1-1-1v-.634c0-.424-.271-.794-.651-.982a5.997 5.997 0 0 1-.685-.396c-.352-.236-.809-.286-1.176-.074l-.55.318a1 1 0 0 1-1.366-.366l-1-1.732a1 1 0 0 1 .366-1.366l.55-.318c.367-.211.552-.631.525-1.053a6.09 6.09 0 0 1 0-.794c.027-.422-.158-.842-.525-1.053l-.55-.318a1 1 0 0 1-.366-1.366l1-1.732a1 1 0 0 1 1.366-.366l.55.318c.367.212.824.162 1.176-.074.219-.146.447-.279.685-.396.38-.187.65-.558.65-.982V3Zm2 10a3 3 0 1 1 0-6 3 3 0 0 1 0 6Z" /><rect x="4" width="16" height="11" rx="2" fill="#E34449" /><path d="M7.5 5.25V3H6v6h1.5V6.75h2V9H11V3H9.5v2.25h-2Zm7-.75H16a.5.5 0 0 1 .5.5v2a.5.5 0 0 1-.5.5h-1.5v-3ZM13 3v6h3a2 2 0 0 0 2-2V5a2 2 0 0 0-2-2h-3Z" /><path d="M7.5 4.25V2H6v6h1.5V5.75h2V8H11V2H9.5v2.25h-2Zm7-.75H16a.5.5 0 0 1 .5.5v2a.5.5 0 0 1-.5.5h-1.5v-3ZM13 2v6h3a2 2 0 0 0 2-2V4a2 2 0 0 0-2-2h-3Z" fill="#F5F5F5" /></symbol><symbol fill="currentColor" viewBox="0 0 20 20" id="settings-vr"><path fill-rule="evenodd" clip-rule="evenodd" d="M8 3a1 1 0 0 1 1-1h2a1 1 0 0 1 1 1v.634c0 .424.271.795.651.982.238.117.466.25.685.396.352.236.809.286 1.176.074l.55-.318a1 1 0 0 1 1.366.366l1 1.732a1 1 0 0 1-.366 1.366l-.55.318c-.367.212-.553.631-.525 1.054a6.121 6.121 0 0 1 0 .793c-.028.422.158.841.525 1.053l.55.318a1 1 0 0 1 .366 1.366l-1 1.732a1 1 0 0 1-1.366.366l-.55-.318c-.368-.212-.824-.162-1.176.074a5.99 5.99 0 0 1-.685.396c-.38.188-.651.558-.651.982V17a1 1 0 0 1-1 1H9a1 1 0 0 1-1-1v-.634c0-.424-.271-.794-.651-.982a5.997 5.997 0 0 1-.685-.396c-.352-.236-.809-.286-1.176-.074l-.55.318a1 1 0 0 1-1.366-.366l-1-1.732a1 1 0 0 1 .366-1.366l.55-.318c.367-.211.552-.631.525-1.053a6.09 6.09 0 0 1 0-.794c.027-.422-.158-.842-.525-1.053l-.55-.318a1 1 0 0 1-.366-1.366l1-1.732a1 1 0 0 1 1.366-.366l.55.318c.367.212.824.162 1.176-.074.219-.146.447-.279.685-.396.38-.187.65-.558.65-.982V3Zm2 10a3 3 0 1 1 0-6 3 3 0 0 1 0 6Z" /><rect x="4" width="16" height="11" rx="2" fill="#2D87D4" /><path d="M10.5 3H12l-2 6H8L6 3h1.5L9 7.25 10.5 3Z" /><path fill-rule="evenodd" clip-rule="evenodd" d="M17.5 4.2v1.2c0 .568-.5 1.2-1 1.2L18 9h-1.5l-1.142-2h-1.025v2H13V3h3.167c.736 0 1.333.537 1.333 1.2ZM15.667 4a.5.5 0 0 1 .5.5V5a.5.5 0 0 1-.5.5h-1.334V4h1.334Z" /><path d="M10.5 2H12l-2 6H8L6 2h1.5L9 6.25 10.5 2Z" fill="#F5F5F5" /><path fill-rule="evenodd" clip-rule="evenodd" d="M17.5 3.2v1.2c0 .568-.5 1.2-1 1.2L18 8h-1.5l-1.142-2h-1.025v2H13V2h3.167c.736 0 1.333.537 1.333 1.2ZM15.667 3a.5.5 0 0 1 .5.5V4a.5.5 0 0 1-.5.5h-1.334V3h1.334Z" fill="#F5F5F5" /></symbol><symbol fill="currentColor" viewBox="0 0 20 20" id="share"><path d="m11.754 11.605-3.516-1.76c.013-.14.019-.25.019-.33 0-.08-.006-.19-.02-.33l3.517-1.76a3.131 3.131 0 1 0-.98-1.95l-3.517 1.76a3.125 3.125 0 1 0 0 4.57l3.517 1.76a3.13 3.13 0 1 0 .98-1.96Z" /></symbol><symbol fill="currentColor" viewBox="0 0 20 20" id="shield"><path fill-rule="evenodd" clip-rule="evenodd" d="M3 5v4.552a8 8 0 0 0 3.777 6.795l2.167 1.347a2 2 0 0 0 2.112 0l2.167-1.347A8 8 0 0 0 17 9.552V5c0-1.529-2.512-2.345-4.526-2.753a12.452 12.452 0 0 0-4.948 0C5.512 2.655 3 3.471 3 5Zm3.293 4.293a1 1 0 0 1 1.414 0L9 10.586l3.293-3.293a1 1 0 1 1 1.414 1.414l-4 4a1 1 0 0 1-1.414 0l-2-2a1 1 0 0 1 0-1.414Z" /></symbol><symbol fill="currentColor" viewBox="0 0 20 20" id="sort"><path d="M12.268 9a2 2 0 0 1 3.464 0H18v2h-2.268a2 2 0 0 1-3.464 0H2V9h10.268Zm-5 6a2 2 0 0 1 3.464 0H18v2h-7.268a2 2 0 0 1-3.464 0H2v-2h5.268Zm-3-12a2 2 0 0 1 3.464 0H18v2H7.732a2 2 0 0 1-3.464 0H2V3h2.268Z" /></symbol><symbol fill="currentColor" viewBox="0 0 20 20" id="star"><path d="m10 14.392 5.15 3.108-1.367-5.858 4.55-3.942-5.991-.508L10 1.667 7.658 7.192 1.667 7.7l4.55 3.942L4.85 17.5 10 14.392Z" /></symbol><symbol fill="currentColor" viewBox="0 0 20 20" id="start-watching"><path fill-rule="evenodd" clip-rule="evenodd" d="M6 3a3 3 0 0 0-3 3v8a3 3 0 0 0 3 3h8a3 3 0 0 0 3-3V6a3 3 0 0 0-3-3H6Zm2 4.611a.61.61 0 0 1 .938-.514L12.73 9.51a.58.58 0 0 1 0 .978l-3.794 2.414A.61.61 0 0 1 8 12.39V7.61Z" /></symbol><symbol fill="currentColor" viewBox="0 0 20 20" id="statistic"><path fill-rule="evenodd" clip-rule="evenodd" d="M5 3a2 2 0 0 0-2 2v10a2 2 0 0 0 2 2h10a2 2 0 0 0 2-2V5a2 2 0 0 0-2-2H5Zm5 3a1 1 0 0 0-1 1v7a1 1 0 1 0 2 0V7a1 1 0 0 0-1-1Zm3 6a1 1 0 1 1 2 0v2a1 1 0 1 1-2 0v-2ZM6 9a1 1 0 0 0-1 1v4a1 1 0 1 0 2 0v-4a1 1 0 0 0-1-1Z" /></symbol><symbol fill="currentColor" viewBox="0 0 20 20" id="stop-watching"><path fill-rule="evenodd" clip-rule="evenodd" d="M3 6a3 3 0 0 1 3-3h8a3 3 0 0 1 3 3v8a3 3 0 0 1-3 3H6a3 3 0 0 1-3-3V6Zm4 2a1 1 0 0 1 2 0v4a1 1 0 1 1-2 0V8Zm5-1a1 1 0 0 0-1 1v4a1 1 0 1 0 2 0V8a1 1 0 0 0-1-1Z" /></symbol><symbol fill="currentColor" viewBox="0 0 20 20" id="story"><path d="M5 2h10a1 1 0 0 1 1 1v14a1 1 0 0 1-1 1H5a1 1 0 0 1-1-1V3a1 1 0 0 1 1-1Zm1 3v2h8V5H6Zm0 4v2h8V9H6Zm0 4v2h3v-2H6Z" /></symbol><symbol viewBox="0 0 48 48" fill="currentColor" id="straight"><path fill="#007dd5" d="m22.654 20.774-.094 2.746h-4.032l-.036-2.746c0-5.135 4.189-9.298 9.355-9.298 1.76 0 3.406.483 4.812 1.322l4.457-4.183h-1.028c-1.06 0-1.919-.854-1.919-1.907s.859-1.907 1.919-1.907h5.757a1.915 1.915 0 0 1 1.919 1.908v5.722c0 1.053-.859 1.907-1.919 1.907s-1.919-.854-1.919-1.907v-1.213l-4.447 4.179a9.22 9.22 0 0 1 1.723 5.379c0 5.13-4.18 9.29-9.351 9.298a2.063 2.063 0 0 1-2.059-2.063c0-1.136.919-2.058 2.054-2.07 2.87 0 5.197-2.313 5.197-5.166s-2.327-5.166-5.197-5.166-5.193 2.313-5.193 5.166z" /><path fill="#e34449" d="m12.412 13.44.068.001a2.02 2.02 0 1 1-.198 4.034 6.048 6.048 0 1 0 6.245 6.045h4.032c0 4.877-3.463 8.944-8.064 9.878v2.218h2.016a2.017 2.017 0 0 1 0 4.032h-2.016v2.016a2.017 2.017 0 0 1-4.032 0v-2.016H8.447a2.017 2.017 0 0 1 0-4.032h2.016v-2.218c-4.601-.934-8.064-5.002-8.064-9.878 0-5.526 4.446-10.013 10.012-10.08z" /></symbol><symbol viewBox="0 0 48 48" fill="currentColor" id="sub"><path d="M11.375 30.05a6.575 6.575 0 1 1 0 13.15 6.575 6.575 0 0 1 0-13.15zM39.913 43.2a3.288 3.288 0 0 1-3.288-3.288c0-17.605-10.936-28.537-28.537-28.537-1.755-.466-2.77-2.377-2.304-4.132.303-1.14 1.193-2.03 2.304-2.443 10.395 0 19.199 3.322 25.5 9.612s9.612 15.109 9.612 25.5a3.288 3.288 0 0 1-3.287 3.288zM24.18 39.912c0-10.678-5.415-16.092-16.092-16.092a3.288 3.288 0 0 1 0-6.575c14.403 0 22.668 8.259 22.668 22.664a3.288 3.288 0 1 1-6.576.003z" /></symbol><symbol fill="currentColor" viewBox="0 0 20 20" id="sun"><path d="M9 3a1 1 0 0 1 2 0v1a1 1 0 1 1-2 0V3ZM13 10a3 3 0 1 1-6 0 3 3 0 0 1 6 0ZM2 10a1 1 0 0 0 1 1h1a1 1 0 1 0 0-2H3a1 1 0 0 0-1 1ZM5.757 15.657a1 1 0 0 1-1.414-1.414l.707-.707a1 1 0 0 1 1.415 1.414l-.708.707ZM4.343 4.343a1 1 0 0 0 0 1.414l.707.708A1 1 0 0 0 6.465 5.05l-.707-.707a1 1 0 0 0-1.415 0ZM9 16a1 1 0 1 1 2 0v1a1 1 0 1 1-2 0v-1ZM15 10a1 1 0 0 0 1 1h1a1 1 0 1 0 0-2h-1a1 1 0 0 0-1 1ZM14.95 6.465a1 1 0 1 1-1.414-1.415l.707-.707a1 1 0 1 1 1.414 1.414l-.707.708ZM13.536 13.536a1 1 0 0 0 0 1.414l.707.707a1 1 0 0 0 1.414-1.414l-.707-.707a1 1 0 0 0-1.414 0Z" /></symbol><symbol fill="currentColor" viewBox="0 0 21 20" id="time"><path d="M10.667 16a6 6 0 1 0 0-12 6 6 0 0 0 0 12Zm.707-5.293a.997.997 0 0 0 .293-.707V7a1 1 0 1 0-2 0v2h-2a1 1 0 1 0 0 2h3a.997.997 0 0 0 .707-.293ZM10.667 18a8 8 0 1 1 0-16 8 8 0 0 1 0 16Z" /></symbol><symbol fill="currentColor" viewBox="0 0 20 20" id="translation"><path clip-rule="evenodd" d="M10.294 12.24C8.446 11.15 7.468 9.6 6.997 8.078 6.347 10.01 5 11.997 2 13.018V11.01c2.018-1.037 3.796-2.139 4.006-5L2 5.981V4h4.002l.004-2h2l-.014 2h4.022v2.01H7.992c.13.916.798 3.246 2.918 4.5l1.654-4.646h2.29l4.01 11.263h-1.719L16 13.746h-4.582l-1.145 3.381H8.555l1.74-4.888Zm1.72-.185 3.413.027-1.718-4.527-1.695 4.439v.06Z" /></symbol><symbol fill="currentColor" viewBox="0 0 20 20" id="translation-disabled"><path clip-rule="evenodd" d="M15.556 7.833 20 5V2.5l-20 12v2.627l9.295-5.586c.3.248.633.482 1 .698l-1.74 4.888h1.718l1.145-3.381H16l1.146 3.381h1.718l-3.308-9.294Zm-2.524 1.495 1.102-.653 1.293 3.407-3.413-.027v-.061l1.018-2.666Z" /><path d="M7.992 6.01c.065.46.267 1.28.722 2.14l-1.38.818a7.735 7.735 0 0 1-.337-.89c-.165.494-.377.99-.65 1.474L2 12.126V11.01c2.018-1.037 3.796-2.139 4.006-5L2 5.981V4h4.002l.004-2h2l-.014 2h4.022v2.01H7.992ZM12.576 5.864h-.012l-.004.009.016-.01Z" /></symbol><symbol fill="currentColor" viewBox="0 0 20 20" id="trash"><path d="M7.585 2.83A1.5 1.5 0 0 1 8.927 2h2.146a1.5 1.5 0 0 1 1.342.83l.447.894a.5.5 0 0 0 .447.276H15a1 1 0 1 1 0 2H5a1 1 0 0 1 0-2h1.691a.5.5 0 0 0 .447-.276l.447-.895ZM6 8a1 1 0 0 0-1 1v7a2 2 0 0 0 2 2h6a2 2 0 0 0 2-2V9a1 1 0 0 0-1-1H6Z" /></symbol><symbol viewBox="0 0 12 12" fill="currentColor" id="trophy"><path d="M1.2 3.874c0 1.343 1.015 2.437 2.276 2.478.327.896 1.068 1.578 1.973 1.778v.892A2.017 2.017 0 0 0 4.196 10.2h3.608a2.016 2.016 0 0 0-1.253-1.178V8.13c.905-.2 1.646-.883 1.973-1.778 1.261-.04 2.276-1.135 2.276-2.478V2.04H8.707V1.2H3.294v.84H1.2v1.834zm8.579-.755v.755c0 .682-.462 1.25-1.072 1.376V3.12h1.072zm-7.558 0h1.073V5.25c-.61-.126-1.073-.694-1.073-1.376V3.12z" /><path d="M8.668 9.6H3.332v1.2h5.336V9.6z" /></symbol><symbol fill="currentColor" viewBox="0 0 20 20" id="tune"><path fill-rule="evenodd" clip-rule="evenodd" d="M15 9a3.001 3.001 0 1 0-2.692-4.326.559.559 0 0 1-.49.326H3a1 1 0 0 0 0 2h8.817c.212 0 .397.136.491.326A3 3 0 0 0 15 9Zm1-3a1 1 0 1 0-2 0 1 1 0 0 0 2 0ZM5 17a3.001 3.001 0 1 1 2.692-4.326.56.56 0 0 0 .49.326H17a1 1 0 1 1 0 2H8.183a.56.56 0 0 0-.491.326A3 3 0 0 1 5 17Zm-1-3a1 1 0 1 1 2 0 1 1 0 0 1-2 0Z" /></symbol><symbol fill="currentColor" viewBox="0 0 20 20" id="twitter"><g clip-path="url(#twitter_a)"><path d="M18.638 4.657a7.1 7.1 0 0 1-2.035.557 3.546 3.546 0 0 0 1.558-1.956c-.685.405-1.443.7-2.25.858A3.544 3.544 0 0 0 13.322 3 3.54 3.54 0 0 0 9.87 7.34a10.072 10.072 0 0 1-7.305-3.693 3.53 3.53 0 0 0 1.097 4.719 3.538 3.538 0 0 1-1.606-.443v.045a3.54 3.54 0 0 0 2.843 3.466 3.558 3.558 0 0 1-1.6.06 3.547 3.547 0 0 0 3.31 2.454 7.124 7.124 0 0 1-5.247 1.464A10.053 10.053 0 0 0 6.795 17c6.52 0 10.085-5.385 10.085-10.056 0-.153-.003-.306-.01-.457a7.189 7.189 0 0 0 1.768-1.83Z" fill="#2AA9E0" /></g><defs></defs></symbol><clipPath id="twitter_a"><path fill="#fff" transform="translate(1.362 3)" d="M0 0h17.277v14H0z" /></clipPath><symbol fill="currentColor" viewBox="0 0 20 20" id="undo"><path d="m6.414 6 1.293-1.293a1 1 0 0 0-1.414-1.414l-3 3a1 1 0 0 0 0 1.414l3 3a1 1 0 0 0 1.414-1.414L6.414 8H13.5a2.5 2.5 0 0 1 0 5H11a1 1 0 1 0 0 2h2.5a4.5 4.5 0 1 0 0-9H6.414Z" /></symbol><symbol fill="currentColor" viewBox="0 0 20 20" id="upload"><path d="M9 15a1 1 0 0 1-1 1H4c-1.657 0-3-1.448-3-3.105 0-1.312.842-2.427 2.015-2.835a6.501 6.501 0 0 1 12.454-2.138A4 4 0 0 1 19 11.895C19 14.104 17.21 16 15 16h-3a1 1 0 0 1-1-1v-4.586l1.293 1.293a1 1 0 0 0 1.414-1.414l-3-3a1 1 0 0 0-1.414 0l-3 3a1 1 0 1 0 1.414 1.414L9 10.414V15Z" /></symbol><symbol fill="currentColor" viewBox="0 0 20 20" id="upload-arrow"><path d="M6.293 7.707a1 1 0 0 1 0-1.414l3.006-3A.998.998 0 0 1 9.991 3h.019a.998.998 0 0 1 .713.301l.7.699-.007.007 2.29 2.286a1 1 0 0 1 0 1.414c-.39.39-1.024.39-1.415 0L11.008 6.43V12a1 1 0 0 1-2.002 0V6.414L7.71 7.707c-.39.39-1.025.39-1.416 0Z" /><path d="M5 12a1 1 0 1 0-2 0v3.5A1.5 1.5 0 0 0 4.5 17h11a1.5 1.5 0 0 0 1.5-1.5V12a1 1 0 1 0-2 0v3H5v-3Z" /></symbol><symbol fill="currentColor" viewBox="0 0 20 20" id="user-header"><path fill-rule="evenodd" clip-rule="evenodd" d="M2 10a8 8 0 1 1 16 0 8 8 0 0 1-16 0Zm6-3a2 2 0 1 1 4 0 2 2 0 0 1-4 0Zm4.5 4a1.5 1.5 0 0 1 1.5 1.5c0 2-2.948 2.5-4 2.5s-4-.5-4-2.5A1.5 1.5 0 0 1 7.5 11h5Z" /></symbol><symbol fill="currentColor" viewBox="0 0 20 20" id="video"><path fill-rule="evenodd" clip-rule="evenodd" d="M2 6a2 2 0 0 1 2-2h8a2 2 0 0 1 2 2v2l2.4-1.8A1 1 0 0 1 18 7v6a1 1 0 0 1-1.6.8L14 12v2a2 2 0 0 1-2 2H4a2 2 0 0 1-2-2V6Z" /></symbol><symbol fill="currentColor" viewBox="0 0 20 20" id="video-off"><path d="m3.1 3.686-.393-.393a1 1 0 0 0-1.414 1.414l.776.776a2.002 2.002 0 0 0-.07.522v7.998a2 2 0 0 0 2 2H12c.18 0 .355-.024.521-.069l1.773 1.773a1 1 0 0 0 1.415-1.414l-.564-.563a.948.948 0 0 1-.023-.023l-12.001-12a1.008 1.008 0 0 1-.021-.021ZM16.4 13.803a24.89 24.89 0 0 1-2.666-2.312L6.247 4.005H12a2 2 0 0 1 2 2v2l2.4-1.8a1 1 0 0 1 1.6.8v5.998a1 1 0 0 1-1.6.8Z" /></symbol><symbol viewBox="0 0 66 48" fill="currentColor" id="vr"><path d="M13.714 0h37.714c7.574 0 13.714 6.14 13.714 13.714v20.571c0 7.574-6.14 13.714-13.714 13.714H13.714C6.14 47.999 0 41.859 0 34.285V13.714C0 6.14 6.14 0 13.714 0zm8.914 34.286 12.46-20.571h-5.212l-9.16 15.822-2.221-15.822h-4.78l3.423 20.571h5.49zm26.493 0-2.837-7.618c3.331-.617 5.86-3.423 5.86-7.155 0-3.578-3.023-5.798-6.353-5.798h-8.79l-4.534 20.571h4.38l1.604-7.309h3.393l2.437 7.309h4.842zm-5.213-11.165h-4.595l1.234-5.552h4.41c1.357 0 2.591.987 2.591 2.375 0 1.85-1.357 3.177-3.639 3.177z" /></symbol><symbol fill="currentColor" viewBox="0 0 20 20" id="watch-history"><path d="M4 10h1l-2 3-2-3h1a8 8 0 1 1 2.343 5.657l1.414-1.414A6 6 0 1 0 4 10Zm4 3V7l5 3.064L8 13Z" /></symbol><symbol fill="currentColor" viewBox="0 0 20 20" id="watch-history-disabled"><path d="M17.328 6.784 20 5.232V3L0 15v2l8-4.693V13l5-2.936-.595-.365 3.184-1.885a6 6 0 0 1-9.832 6.429l-1.414 1.414a8 8 0 0 0 12.984-8.873ZM10 2c2.112 0 4.032.818 5.462 2.155l-1.82 1.077A6 6 0 0 0 4 10h1.001l-.385.578-2.316 1.371L1 10h1a8 8 0 0 1 8-8Z" /><path d="m8 7 1.306.8L8 8.573V7Z" /></symbol></defs></svg>